# xmcd
#
# Track frame offsets:
#	150
#	8994
#	13790
#	26787
#	45361
#	49972
#	65684
#	81598
#	85287
#	88926
#	93232
#	113546
#	130825
#	149749
#	163588
#	169987
#	185649
#	188563
#	211714
#	217918
#	236692
#	245966
#	251005
#	268934
#	282891
#	286155
#	303891
#
# Disc length: 4308 seconds
#
# Revision: 1
# Processed by: cddbd v1.5.1PL0 Copyright (c) Steve Scherf et al.
# Submitted via: audiograbber 1.83.01
#
DISCID=8e10d21b
DTITLE=Soundbombing - Soundbombing II (Produce by J-Rocc and Babu)
DYEAR=1999
DGENRE=Hip-Hop
TTITLE0=Intro
TTITLE1=The Beat Junkies - Any Man Intro
TTITLE2=Eminem - Any Man
TTITLE3=The High and Mighty/Mos Def/Mad Skillz - B-Boy Document 99
TTITLE4=The Beat Junkies - WWIII Intro
TTITLE5=Pharoahe Monch/Shabaam Sahdeeq - WWIII
TTITLE6=R.A. The Rugged Man - Stanley Kubric
TTITLE7=Live/Prince Paul - A Message From
TTITLE8=Kid Capri/The Beat Junkies - Crosstown Beef Intro
TTITLE9=Medine Green - Crosstown Beef
TTITLE10=Marley Marl/Pete Rock/The Beat Junkies - 7XL Intro
TTITLE11=Sir Menelik/Grand Puba/Sadat X - 7XL
TTITLE12=Reflection Eternal/Bahamadia - Chaos
TTITLE13=Dialated Peoples/Tash - Soundbombing
TTITLE14=Thirstin Howl III - Brooklyn Hard Rock
TTITLE15=Pharoahe Monch - Mayor
TTITLE16=The Beat Junkies - Patriotism Intro
TTITLE17=Company Flow - Patriotism
TTITLE18=Tip/The Beat Junkies - 1999 Intro
TTITLE19=Common/Sadat X - 1-9-9-9
TTITLE20=Diamond - When It Pours It Rains
TTITLE21=Mos Def/The Beat Junkies - A Message From
TTITLE22=Mos Def - Next Universe
TTITLE23=The Beat Junkies - Every Time I Write Intro
TTITLE24=Shabaam Sahdeeq/The Cocoa Brovas - Every Time I Write
TTITLE25=Reflection Eternal - On Mission
TTITLE26=Outro
EXTD=
EXTT0=
EXTT1=
EXTT2=
EXTT3=
EXTT4=
EXTT5=
EXTT6=
EXTT7=
EXTT8=
EXTT9=
EXTT10=
EXTT11=
EXTT12=
EXTT13=
EXTT14=
EXTT15=
EXTT16=
EXTT17=
EXTT18=
EXTT19=
EXTT20=
EXTT21=
EXTT22=
EXTT23=
EXTT24=
EXTT25=
EXTT26=
PLAYORDER=
